<svg xmlns="http://www.w3.org/2000/svg" viewBox="0 0 1057 251.05"><defs><style>.cls-1{fill:#abb316;}.cls-2{fill:#1980c3;}.cls-3{fill:#dc0e61;}.cls-4{fill:#ddd5ca;}.cls-5{fill:#f27f12;}.cls-6{fill:#ebcb1a;}</style></defs><g id="Layer_2" data-name="Layer 2"><g id="Layer_1-2" data-name="Layer 1"><g id="Layer_2-2" data-name="Layer 2"><g id="Layer_1-2-2" data-name="Layer 1-2"><path class="cls-1" d="M185,251c-8.37-8.55-16.86-17-25-25.73a11,11,0,0,1-2.85-6.8q-.24-65.48,0-131A11,11,0,0,1,160,80.75c6.84-7.29,13.86-14.43,21.2-21.2a13.44,13.44,0,0,1,8.21-3.37q38.24-.37,76.48,0a9.53,9.53,0,0,1,6,2.41Q284,70.13,295.57,82.22a8.87,8.87,0,0,1,2.33,5.54q.23,38.24,0,76.48a8.85,8.85,0,0,1-2.29,5.56Q284,181.86,271.92,193.46a9.61,9.61,0,0,1-6,2.46c-14.83.2-29.66.16-44.49.08-4.11,0-6.09.63-4.84,5.71.9,3.68-.18,7.85-.39,11.79A16.63,16.63,0,0,1,216,217c-.74,2.73-.91,6.1-2.64,8-8.21,8.92-16.87,17.44-25.37,26.1Z"/><path class="cls-2" d="M0,85c8.78-8.61,17.46-17.34,26.44-25.75a11.7,11.7,0,0,1,7.17-3.11q38-.35,76,0a12.68,12.68,0,0,1,7.84,3c9,8.46,17.56,17.31,26.64,26.37-7.83,7.78-15.46,15.6-23.37,23.12-3.27,3.11-3.52,5.34-.12,8.54q10.17,9.6,19.77,19.81a9.9,9.9,0,0,1,2.51,6c.3,7.16.26,14.34,0,21.49a8.36,8.36,0,0,1-2.12,5.13c-7.64,7.9-15.36,15.75-23.37,23.28a11.82,11.82,0,0,1-7.36,3q-38.5.31-77,0a9.48,9.48,0,0,1-6-2.46C19.32,186,11.9,178.4,4.3,170.88A28.12,28.12,0,0,0,0,168v-4c.63-.14,1.46-.08,1.85-.46C10,155.49,18,147.36,25.27,140L0,113v-1c.33-3.83,1-7.67.93-11.5,0-4.5-.6-9-.93-13.5Z"/><path class="cls-3" d="M658,0c5.46,6,10.94,11.91,16.38,17.89,2.89,3.17,5.88,6.26,8.5,9.64.88,1.13,1.07,3,1.07,4.57.08,15.84.11,31.67,0,47.5,0,3.76,1.61,6.1,4.34,8.62,7.83,7.22,15.27,14.87,22.71,22.5.51.52.27,2.6-.36,3.29-5.5,5.95-11.12,11.79-16.78,17.58-2.68,2.74-5.55,5.3-7,6.69C695,147.26,702.4,155.84,710.3,164c2.52,2.59,1.6,3.76-.28,5.55-7.22,6.85-15,13.24-21.4,20.77-4.19,4.91-8.43,6.27-14.38,5.84-6.93-.5-14.65,1.49-20.68-.94-5.77-2.33-9.75-9-14.62-13.67-4.05-3.89-8.42-7.46-12.3-11.51a9.49,9.49,0,0,1-2.53-5.92q-.21-66,0-132a9.8,9.8,0,0,1,2.45-6c8-8.79,16.26-17.38,24.44-26Z"/><path class="cls-4" d="M1057,171a29.1,29.1,0,0,0-4.39,3c-6.55,6.41-13,12.94-19.47,19.39-3.86,3.82-8.36,3.88-12.16.11-7.57-7.5-15.17-15-22.54-22.67a9,9,0,0,1-2.34-5.61Q996,99.49,996,33.83c0-6.45,5.65-9,9-13,6.18-7.36,13.31-13.93,20-20.83h3c8.45,8.61,16.87,17.26,25.42,25.78.8.8,2.37.83,3.58,1.22Z"/><path class="cls-5" d="M612,56c0,13.56.08,26.38-.1,39.19a7.52,7.52,0,0,1-2.25,4.58c-8.08,8.15-16.37,16.09-24.37,24.32-.62.63,0,3.44.86,4.38,7.51,7.8,15.36,15.28,22.77,23.16a11.84,11.84,0,0,1,3,7.23c.3,12.14.14,24.29.14,37.14H591c-7,0-14.7,1.79-20.78-.58-5.85-2.28-10-8.91-14.92-13.57-4-3.73-8.13-7.27-12-11.09-2.44-2.41-4.34-2.32-6.7.09Q525.42,182.3,514,193.47c-1.2,1.16-3,2.43-4.49,2.45-13.3.19-26.6.11-40.26.11-.09-1.91-.23-3.52-.23-5.12q0-78-.08-155.92a9.82,9.82,0,0,1,3.28-7.77C481,18.6,489.63,9.78,498.41.94,507.77,10.31,517,19.42,526,28.77a8.9,8.9,0,0,1,1.89,5.7c.13,20,.08,39.91.08,60.79A55.51,55.51,0,0,0,533,91.43c11.48-11.06,22.88-22.21,34.36-33.26a6,6,0,0,1,3.67-2C584.55,56,598,56,612,56Z"/><path class="cls-4" d="M956.59,139.7l26.59,26.52c-9.78,9.82-19.09,19.26-28.58,28.53-1,1-3,1.22-4.58,1.23-25.65.07-51.3.11-76.95-.06a9.64,9.64,0,0,1-6-2.51c-7.94-7.6-15.74-15.36-23.31-23.33a10.66,10.66,0,0,1-2.62-6.49c-.54-16.27-.84-32.55-1.09-48.82-.13-8.7-.32-17.42.16-26.09A13.6,13.6,0,0,1,844,80.74C851.3,73.26,858.91,66,866.67,59a11.43,11.43,0,0,1,6.88-2.88q38-.32,75.94,0a11.46,11.46,0,0,1,6.87,2.9c7.52,6.79,14.68,14,22.11,20.86a9.92,9.92,0,0,1,3.61,8.23c-.26,7.65.08,15.33-.2,23a9.08,9.08,0,0,1-2.63,5.22C971.83,124.2,964.22,131.88,956.59,139.7Z"/><path class="cls-6" d="M311,101.92c.15-3.32.35-6.64.43-10,.14-5.09,1.63-9.24,5.75-12.84C325,72.37,332.13,65,339.69,58a7.67,7.67,0,0,1,4.74-1.88q39-.16,78,0a8.34,8.34,0,0,1,5.15,2.11c7.91,7.32,15.76,14.73,23.33,22.41a11.43,11.43,0,0,1,3,6.9c.38,7.48.32,15,0,22.49a9.83,9.83,0,0,1-2.5,6c-7.63,7.91-15.52,15.57-23.62,23.62l27.33,26.91c-9,9-17.8,17.94-26.85,26.55a11.16,11.16,0,0,1-7,2.83q-38.25.28-76.49,0a8.91,8.91,0,0,1-5.56-2.3c-7.92-7.63-15.73-15.38-23.29-23.36a11.28,11.28,0,0,1-2.82-6.82c-.65-18.86-1-37.73-1.46-56.6a24.56,24.56,0,0,0-.62-3.71Z"/><path class="cls-4" d="M833.81,85.52c-9.29,9.69-18.29,19.22-27.52,28.55a8.44,8.44,0,0,1-5.3,1.87c-6.44.22-12.89.09-20,.09v13.91c0,12,.1,24-.1,36a8.88,8.88,0,0,1-2.14,5.69C771,179.39,763.08,187,755,194.42c-2.93,2.71-6.35,2.65-9.35-.18-7.72-7.31-15.49-14.57-23-22.13a10.17,10.17,0,0,1-2.62-6.48q-.27-38,0-75.93A11.12,11.12,0,0,1,723,82.77q11.5-12.13,23.66-23.67a11.2,11.2,0,0,1,6.84-2.94c15.82-.25,31.64-.16,47.46-.08,1.56,0,3.62.2,4.6,1.16C815,66.53,824.33,76,833.81,85.52Z"/></g></g></g></g></svg>