<svg xmlns="http://www.w3.org/2000/svg" viewBox="0 0 1056.14 250.27"><g id="Layer_2" data-name="Layer 2"><g id="Layer_1-2" data-name="Layer 1"><path d="M184.85,250.27c-8.37-8.51-16.84-16.93-25-25.63a11,11,0,0,1-2.85-6.77q-.24-65.22,0-130.46a11,11,0,0,1,2.86-6.75C166.69,73.4,173.7,66.29,181,59.54a13.47,13.47,0,0,1,8.21-3.36q37.95-.37,75.92,0A11,11,0,0,1,272,58.92c7.86,7.41,15.5,15.06,23,22.86a10.24,10.24,0,0,1,2.71,6.34q.27,37.59,0,75.18a10.25,10.25,0,0,1-2.64,6.37q-11.36,11.9-23.29,23.24a9.56,9.56,0,0,1-6,2.46c-14.81.21-29.63.16-44.45.09-4.08,0-6.12.58-4.87,5.67.91,3.67-.17,7.82-.37,11.76a16.27,16.27,0,0,1-.23,3.43c-.73,2.72-.91,6.07-2.64,8-8.2,8.89-16.85,17.37-25.34,26Z"/><path d="M0,164.61l25.35-27c-4.08-4.07-8.78-9.69-14.41-14.15-8-6.36-10.2-14-10.33-24.06C.47,88.6,2.9,80.49,11.51,73.68c6.48-5.12,11-13.85,18.07-16.75,7.29-3,16.68-.87,25.15-.89,18.3,0,36.61-.12,54.91.12a11.92,11.92,0,0,1,7.44,2.77c9.06,8.54,17.78,17.46,26.84,26.47-8,7.93-15.74,15.83-23.71,23.52-2.95,2.84-2.95,5,0,7.79q10.28,9.81,20.1,20.07a9.94,9.94,0,0,1,2.46,5.95c.3,7,.3,13.94,0,20.89a9.9,9.9,0,0,1-2.5,5.94c-7.36,7.67-14.84,15.24-22.61,22.49a12.71,12.71,0,0,1-7.73,3.29q-38.43.36-76.87,0a10.33,10.33,0,0,1-6.32-2.77c-9-8.53-17.85-17.3-26.74-26Z"/><path d="M611.5,195.48c-14,0-27.27.07-40.56-.1-1.4,0-3-1.12-4.12-2.16-8-7.47-15.93-14.95-23.68-22.64-2.89-2.86-4.89-2.32-7.45.29-7.31,7.49-14.75,14.86-22.23,22.19-1.09,1.07-2.68,2.3-4.05,2.32-13.43.17-26.87.1-40.8.1v-5.81q0-77.16-.08-154.33A10.38,10.38,0,0,1,472,27.15C480.67,18.69,489.15,10,498.12,1c9.5,9.56,18.89,18.87,28.06,28.39,1.05,1.08,1.32,3.27,1.33,5,.09,19.91.06,39.81.06,60.73a52.46,52.46,0,0,0,5-3.76c11.47-11,22.86-22.12,34.34-33.13,1-1,2.43-2,3.67-2C584.05,56,597.5,56,611.48,56c0,13.62.08,26.85-.11,40.06,0,1.33-1.49,2.82-2.6,3.92-8,8-16.15,15.77-24,23.85-.6.62,0,3.44,1,4.4,7.5,7.77,15.32,15.24,22.76,23.06a11.11,11.11,0,0,1,2.89,6.75C611.65,170.32,611.5,182.58,611.5,195.48Z"/><path d="M955.06,139.1,982.32,166c-9.62,9.58-19.05,19-28.63,28.35-.88.86-2.7,1.06-4.08,1.06-26,.06-51.94.09-77.9-.05a8.2,8.2,0,0,1-5.1-2.18q-12.2-11.78-24-24a9,9,0,0,1-2.22-5.56c-.49-16.52-.81-33.06-1.07-49.59-.13-8.6-.14-17.2.07-25.8.05-2,.69-4.46,2-5.77,8.67-8.66,17.54-17.1,26.49-25.47.9-.84,2.71-1,4.1-1,25.81,0,51.61-.09,77.41.06A9.08,9.08,0,0,1,955,58.39c7.69,7,15.1,14.38,22.74,21.47,2.46,2.28,3.74,4.59,3.59,8.12-.32,7-.16,13.94-.07,20.91,0,3.34-.44,5.68-3.54,8.29C969.72,123.91,962.62,131.65,955.06,139.1Z"/><path d="M427.48,139.29l27.28,26.87c-9.2,9.11-18.19,18.19-27.43,27a9.81,9.81,0,0,1-6.2,2.24q-38.44.23-76.88,0a8.21,8.21,0,0,1-5.12-2.11c-8-7.73-15.93-15.56-23.62-23.6a10.54,10.54,0,0,1-2.66-6.35q-1-28.2-1.55-56.41c-.13-6.85.22-13.7.51-20.54A5.73,5.73,0,0,1,313.28,83c4.14-4.31,8.4-8.52,12.69-12.68,1.28-1.24,3.22-1.93,4.19-3.34,6.77-9.82,16.17-11.58,27.55-11.14,21.1.81,42.26.14,63.39.36a11.32,11.32,0,0,1,6.8,2.8q11.6,10.47,22.62,21.57a11.44,11.44,0,0,1,3,6.85c.37,7.45.31,14.93,0,22.39a9.79,9.79,0,0,1-2.45,6C443.46,123.61,435.59,131.25,427.48,139.29Z"/><path d="M684.56,139.55c9.06,8.64,17.2,16.5,25.47,24.22,2.42,2.26,1.15,3.65-.57,5.27-7.21,6.83-15,13.21-21.39,20.7-4.18,4.87-8.42,6.28-14.38,5.84-6.93-.52-14.64,1.46-20.66-1-5.77-2.33-9.77-9-14.64-13.62-4.18-4-8.62-7.7-12.67-11.81a8,8,0,0,1-2.14-5.09q-.18-66.23,0-132.46a6.89,6.89,0,0,1,1.47-4.4c7.92-8.44,16-16.78,24.08-25,2.91-3,7-2.91,9.94.2,7.8,8.28,15.55,16.62,23.11,25.11,1,1.14,1.23,3.31,1.23,5q.14,23.4,0,46.81c0,3.92,1.69,6.36,4.57,9,7.74,7,15,14.59,22.31,22.1.54.55.19,2.81-.52,3.58-5.34,5.86-10.83,11.58-16.37,17.25C690.71,134,687.82,136.5,684.56,139.55Z"/><path d="M1056.13,99.14c0,22.06.07,44.12-.12,66.18a10.23,10.23,0,0,1-2.65,6.35c-6.85,7.23-14,14.17-21.08,21.2-3.75,3.71-8.42,3.81-12.06.2-7.54-7.48-15.15-14.91-22.5-22.59a9.44,9.44,0,0,1-2.43-6c-.14-43.46,0-86.92-.25-130.38,0-6.11,4.85-8.25,7.73-11.69,6.14-7.37,13.35-13.87,20.36-20.48.92-.87,3.92-1.06,4.75-.28,9.31,8.72,18.43,17.65,27.45,26.68.81.82.77,2.7.77,4.09Q1056.16,65.79,1056.13,99.14Z"/><path d="M833.21,85.31c-9,9.38-17.73,18.66-26.73,27.67a10.51,10.51,0,0,1-6.35,2.69c-6.3.36-12.63.13-19.77.13v5.34c0,14.43-.12,28.87.09,43.29a9.88,9.88,0,0,1-3.5,8.16c-7.54,6.94-14.89,14.1-22.34,21.14-3,2.81-6.37,2.79-9.23.16q-12-11.08-23.66-22.63a8.66,8.66,0,0,1-2.22-5.55q-.21-38.31,0-76.63a9.47,9.47,0,0,1,2.37-6Q734,70.54,746.56,58.46a8.9,8.9,0,0,1,5.53-2.32c16.14-.18,32.28-.15,48.42,0a7.59,7.59,0,0,1,4.84,1.59C814.74,66.8,824,76.09,833.21,85.31Z"/></g></g></svg>